# xmcd
#
# Track frame offsets:
#	150
#	14840
#	32884
#	49023
#	66683
#	81236
#	102580
#	123420
#	140657
#	153478
#	170565
#	186629
#	204398
#	222996
#	238802
#	253247
#	278068
#	293331
#	319559
#
# Disc length: 4613 seconds
#
# Revision: 0
# Processed by: cddbd v1.5.2PL0 Copyright (c) Steve Scherf et al.
# Submitted via: EZCDAudioConverter 3.1.7.1
#
DISCID=30120313
DTITLE=10 Years Eastblok Music CD1
DYEAR=1900
DGENRE=
TTITLE0=Vopil Vidoplyasov - Musika Dika
TTITLE1=Mahala Rai Banda - Colindat
TTITLE2=Messer Chups - Tchaikovsky Beat
TTITLE3=Little Cow - Virágok a réten
TTITLE4=Shukar Collective - Dallaidda
TTITLE5=Haydamaky - Meni Zadayesta
TTITLE6=Slavic Soul Party!  - Opa Cupa
TTITLE7=Watch Clan - Balkan Qoulou
TTITLE8=Figli de madre ignota - Theme from Paradise
TTITLE9=La Minor - Quiet Evening
TTITLE10=Psio Crew - Hajduk
TTITLE11=dunkelbunt and Cloud Tissa - Cebab Connection
TTITLE12=Kiril - Raise up your hand
TTITLE13=Markscheider Kunst - Sudak
TTITLE14=Lyapis Trubetskoy - Capital
TTITLE15=Parov Stelar - The Snake
TTITLE16=Shazalakazoo - Baklava Lover
TTITLE17=Megapolis - Supertango
TTITLE18=Skazka Orchestra - Ryba
EXTD=
EXTT0=
EXTT1=
EXTT2=
EXTT3=
EXTT4=
EXTT5=
EXTT6=
EXTT7=
EXTT8=
EXTT9=
EXTT10=
EXTT11=
EXTT12=
EXTT13=
EXTT14=
EXTT15=
EXTT16=
EXTT17=
EXTT18=
PLAYORDER=
